<svg width="96" height="96" viewBox="0 0 96 96" fill="none" xmlns="http://www.w3.org/2000/svg">
<path d="M22.0951 44C18.7288 44 15.9999 45.7909 15.9999 48C15.9999 50.2091 18.7288 52 22.0951 52H64.7618C68.1281 52 70.857 50.2091 70.857 48C70.857 45.7909 68.1281 44 64.7618 44H22.0951Z" fill="white" fill-opacity="0.6"/>
<path d="M45.1714 69.1716C43.6093 70.7337 43.6093 73.2663 45.1714 74.8284C46.7335 76.3905 49.2662 76.3905 50.8283 74.8284L74.8283 50.8284C76.3426 49.3141 76.3956 46.8758 74.9485 45.2971L52.9485 21.2971C51.4557 19.6686 48.9254 19.5586 47.297 21.0514C45.6685 22.5442 45.5585 25.0744 47.0512 26.7029L66.4633 47.8797L45.1714 69.1716Z" fill="white"/>
</svg>
