<svg width="120" height="48" viewBox="0 0 120 48" fill="none" xmlns="http://www.w3.org/2000/svg">
<path d="M14.767 22.85C13.8337 22.85 13.1504 22.8333 12.717 22.8C11.3837 28.8667 10.717 32.9333 10.717 35C8.85037 35.8667 6.40037 36.3 3.36704 36.3C2.53371 36.3 1.73371 36.25 0.967041 36.15C0.967041 34.05 1.88371 29.1833 3.71704 21.55C5.55037 13.8833 6.46704 9.13333 6.46704 7.3C6.46704 6.73333 6.26704 6.08333 5.86704 5.35C5.50037 4.61667 5.11704 4.03333 4.71704 3.6L4.16704 2.9L4.36704 1.7C5.63371 1.46667 7.76704 1.21667 10.767 0.95C13.8004 0.65 16.5837 0.5 19.117 0.5C22.8504 0.5 25.617 1.26667 27.417 2.8C29.217 4.33333 30.117 6.4 30.117 9C30.117 13.0333 28.817 16.35 26.217 18.95C23.6504 21.55 19.8337 22.85 14.767 22.85ZM14.667 18.55C16.5337 18.55 17.967 17.4833 18.967 15.35C20.0004 13.2167 20.517 10.65 20.517 7.65C20.517 5.21667 19.717 4 18.117 4L16.517 4.2C16.517 5.5 15.5837 10.2833 13.717 18.55H14.667Z" fill="white"/>
<path d="M41.5174 17.25C41.5174 18.7167 41.1008 21 40.2674 24.1C39.4341 27.1667 39.0174 29.1667 39.0174 30.1C39.0174 31.0333 39.2008 31.5 39.5674 31.5C39.9341 31.5 40.6008 31.3333 41.5674 31L42.0174 30.8L42.9174 33.3C41.7841 34.1667 40.3674 34.9333 38.6674 35.6C37.0008 36.2667 35.4841 36.6 34.1174 36.6C32.7508 36.6 31.6674 36.2167 30.8674 35.45C30.1008 34.6833 29.7174 33.5833 29.7174 32.15C29.7174 30.6833 30.1174 28.4667 30.9174 25.5C31.7508 22.5 32.1674 20.6 32.1674 19.8C32.1674 18.5667 31.7341 17.4 30.8674 16.3L30.4674 15.75L30.6174 14.9C32.3508 14.3667 35.7174 14.1 40.7174 14.1C41.2508 14.7 41.5174 15.75 41.5174 17.25ZM37.7674 10.2C36.2674 10.2 35.0841 9.8 34.2174 9C33.3841 8.2 32.9674 7.18333 32.9674 5.95C32.9674 4.68333 33.4841 3.63333 34.5174 2.8C35.5841 1.93333 36.8674 1.5 38.3674 1.5C39.8674 1.5 41.0341 1.85 41.8674 2.55C42.7008 3.25 43.1174 4.23334 43.1174 5.5C43.1174 6.76667 42.6008 7.86667 41.5674 8.8C40.5674 9.73333 39.3008 10.2 37.7674 10.2Z" fill="white"/>
<path d="M57.1077 33.85C54.7743 35.1167 52.691 35.75 50.8577 35.75C49.0577 35.75 47.541 35.0333 46.3077 33.6C45.1077 32.1333 44.5077 29.9667 44.5077 27.1C44.5077 23.2667 45.541 20.1 47.6077 17.6C49.7077 15.1 52.2077 13.85 55.1077 13.85C56.5077 13.85 58.091 14.2333 59.8577 15C61.9243 14.3667 64.2743 14.05 66.9077 14.05H67.7577C67.9243 14.3833 68.0077 15.1333 68.0077 16.3C68.0077 17.4333 67.791 19.6833 67.3577 23.05C66.9577 26.4167 66.5077 29.2333 66.0077 31.5C64.941 36.3333 63.2743 40.15 61.0077 42.95C58.7743 45.7833 55.9577 47.2 52.5577 47.2C50.891 47.2 49.5243 46.8333 48.4577 46.1C47.4243 45.3667 46.9077 44.4333 46.9077 43.3C46.9077 42.1667 47.1743 41.2167 47.7077 40.45C48.2743 39.7167 49.0743 39.1 50.1077 38.6C51.8743 37.7333 54.041 37.0167 56.6077 36.45L57.1077 33.85ZM57.4077 17.9C56.241 17.9 55.341 18.9 54.7077 20.9C54.1077 22.9 53.8077 25.0667 53.8077 27.4C53.8077 29.7333 54.3577 30.9 55.4577 30.9C55.9243 30.9 56.6077 30.6667 57.5077 30.2C57.7743 27.5 58.2077 23.5 58.8077 18.2C58.3077 18 57.841 17.9 57.4077 17.9ZM51.7077 43.5C52.341 43.5 53.0577 43.1833 53.8577 42.55C54.691 41.9167 55.3743 40.8833 55.9077 39.45C52.2743 40.0833 50.4577 41.05 50.4577 42.35C50.5243 43.1167 50.941 43.5 51.7077 43.5Z" fill="white"/>
<path d="M82.4983 33.85C80.165 35.1167 78.0816 35.75 76.2483 35.75C74.4483 35.75 72.9316 35.0333 71.6983 33.6C70.4983 32.1333 69.8983 29.9667 69.8983 27.1C69.8983 23.2667 70.9316 20.1 72.9983 17.6C75.0983 15.1 77.5983 13.85 80.4983 13.85C81.8983 13.85 83.4816 14.2333 85.2483 15C87.315 14.3667 89.665 14.05 92.2983 14.05H93.1483C93.315 14.3833 93.3983 15.1333 93.3983 16.3C93.3983 17.4333 93.1816 19.6833 92.7483 23.05C92.3483 26.4167 91.8983 29.2333 91.3983 31.5C90.3316 36.3333 88.665 40.15 86.3983 42.95C84.165 45.7833 81.3483 47.2 77.9483 47.2C76.2816 47.2 74.915 46.8333 73.8483 46.1C72.815 45.3667 72.2983 44.4333 72.2983 43.3C72.2983 42.1667 72.565 41.2167 73.0983 40.45C73.665 39.7167 74.465 39.1 75.4983 38.6C77.265 37.7333 79.4316 37.0167 81.9983 36.45L82.4983 33.85ZM82.7983 17.9C81.6316 17.9 80.7316 18.9 80.0983 20.9C79.4983 22.9 79.1983 25.0667 79.1983 27.4C79.1983 29.7333 79.7483 30.9 80.8483 30.9C81.315 30.9 81.9983 30.6667 82.8983 30.2C83.165 27.5 83.5983 23.5 84.1983 18.2C83.6983 18 83.2316 17.9 82.7983 17.9ZM77.0983 43.5C77.7316 43.5 78.4483 43.1833 79.2483 42.55C80.0816 41.9167 80.765 40.8833 81.2983 39.45C77.665 40.0833 75.8483 41.05 75.8483 42.35C75.915 43.1167 76.3316 43.5 77.0983 43.5Z" fill="white"/>
<path d="M118.789 14.2H119.189C119.022 15.0667 118.739 16.9333 118.339 19.8C117.439 26.3333 116.472 31.2667 115.439 34.6C112.872 43 108.756 47.2 103.089 47.2C101.389 47.2 100.006 46.8333 98.9389 46.1C97.9056 45.4 97.3889 44.4667 97.3889 43.3C97.3889 42.1667 97.6556 41.2167 98.1889 40.45C98.7556 39.7167 99.5556 39.1 100.589 38.6C102.356 37.7333 104.522 37.0167 107.089 36.45C107.356 35.1833 107.522 34.3667 107.589 34C104.989 35.4 102.522 36.1 100.189 36.1C96.9889 36.1 95.3889 34.5333 95.3889 31.4C95.3889 30.3 95.7556 28.15 96.4889 24.95C97.2222 21.7167 97.5889 19.4833 97.5889 18.25C97.5889 17.0167 97.5056 16.1 97.3389 15.5C101.272 14.6667 104.322 14.25 106.489 14.25C106.756 14.65 106.889 15.45 106.889 16.65C106.889 17.8167 106.506 20.1 105.739 23.5C105.006 26.9 104.639 28.9 104.639 29.5C104.639 30.5333 105.139 31.05 106.139 31.05C106.706 31.05 107.356 30.9 108.089 30.6C108.356 28.9 108.722 26.3167 109.189 22.85C109.689 19.35 110.039 16.95 110.239 15.65C111.106 15.25 112.406 14.9167 114.139 14.65C115.906 14.35 117.456 14.2 118.789 14.2ZM100.939 42.35C100.939 43.1167 101.439 43.5 102.439 43.5C102.939 43.5 103.589 43.15 104.389 42.45C105.222 41.7833 105.889 40.7833 106.389 39.45C102.756 40.0833 100.939 41.05 100.939 42.35Z" fill="white"/>
</svg>
